<svg width="100%" height="100%" viewBox="0 0 660 660" xmlns="http://www.w3.org/2000/svg" xmlns:xlink="http://www.w3.org/1999/xlink">

  <desc>
    Polygon Star code generated by Polygon Star Maker
    http://steamcoded.org/StarMaker.svg

    Polygon Star Maker written by Jay Nick
    Version 1.0 - March, 2017
  </desc>

  <defs>
    <symbol id="star" viewBox="0 0 600 600" overflow="visible">
      <path d="M300,0L388.4,586.7L131,52.1L534.5,487L20.7,190.4L599.2,322.4L7.5,366.8L559.8,150L95.9,519.9L430.2,29.7L255.3,596.6L255.3,3.4L430.2,570.3L95.9,80.1L559.8,450L7.5,233.2L599.2,277.6L20.7,409.6L534.5,113L131,547.9L388.4,13.3L300,600L211.6,13.3L469,547.9L65.5,113L579.3,409.6L0.8,277.6L592.5,233.2L40.2,450L504.1,80.1L169.8,570.3L344.7,3.4L344.7,596.6L169.8,29.7L504.1,519.9L40.2,150L592.5,366.8L0.8,322.4L579.3,190.4L65.5,487L469,52.1L211.6,586.7L300,0z"/>
    </symbol>
  </defs>

  <g transform="translate(30,30)">
    <use width="600" height="600" xlink:href="#star" style="fill:#d06000;fill-rule:evenodd;stroke:black;stroke-width:6px;stroke-linejoin:miter;stroke-miterlimit:50;"/>
  </g>
</svg>